# xmcd
#
# Track frame offsets: 
#        150
#        21740
#        43598
#        63402
#        79566
#        97974
#        117679
#
# Disc length: 1824 seconds
#
# Revision: 0
# Processed by: cddbd v1.5.2PL0 Copyright (c) Steve Scherf et al.
# Submitted via: ExactAudioCopy v1.0b1
#
DISCID=5a071e07
DTITLE=Tuan Hung - Vol.9 - Tinh Yeu Phoi Pha
DYEAR=2010
DGENRE=Pop
TTITLE0=Tinh Yeu Phoi Pha (Quang Man)
TTITLE1=Giat Minh Trong Dem (Nguyen Van Chung)
TTITLE2=Gui Ngan Loi Yeu (Minh Vuong and Le Viet Khanh)
TTITLE3=Ve Di Em (Ho Hoai Anh)
TTITLE4=Co Quen Lai Cang Nho (Nguyen Hoang Duy)
TTITLE5=Ngan Dieu Uoc Cho Em  (Phuc Truong)
TTITLE6=Song (Tuan Hung) song ca Viet Thanh
EXTD=
EXTT0=
EXTT1=
EXTT2=
EXTT3=
EXTT4=
EXTT5=
EXTT6=
PLAYORDER=
